<svg id="visual" viewBox="0 0 960 540" width="960" height="540" xmlns="http://www.w3.org/2000/svg" xmlns:xlink="http://www.w3.org/1999/xlink" version="1.1"><path d="M0 212L53.3 192.2C106.7 172.3 213.3 132.7 320 122.7C426.7 112.7 533.3 132.3 640 126.8C746.7 121.3 853.3 90.7 906.7 75.3L960 60L960 0L906.7 0C853.3 0 746.7 0 640 0C533.3 0 426.7 0 320 0C213.3 0 106.7 0 53.3 0L0 0Z" fill="#12101b"></path><path d="M0 276L53.3 259C106.7 242 213.3 208 320 211.7C426.7 215.3 533.3 256.7 640 263.8C746.7 271 853.3 244 906.7 230.5L960 217L960 58L906.7 73.3C853.3 88.7 746.7 119.3 640 124.8C533.3 130.3 426.7 110.7 320 120.7C213.3 130.7 106.7 170.3 53.3 190.2L0 210Z" fill="#100f18"></path><path d="M0 303L53.3 286.8C106.7 270.7 213.3 238.3 320 242C426.7 245.7 533.3 285.3 640 290.8C746.7 296.3 853.3 267.7 906.7 253.3L960 239L960 215L906.7 228.5C853.3 242 746.7 269 640 261.8C533.3 254.7 426.7 213.3 320 209.7C213.3 206 106.7 240 53.3 257L0 274Z" fill="#0e0d16"></path><path d="M0 352L53.3 352C106.7 352 213.3 352 320 364.7C426.7 377.3 533.3 402.7 640 418C746.7 433.3 853.3 438.7 906.7 441.3L960 444L960 237L906.7 251.3C853.3 265.7 746.7 294.3 640 288.8C533.3 283.3 426.7 243.7 320 240C213.3 236.3 106.7 268.7 53.3 284.8L0 301Z" fill="#0c0b12"></path><path d="M0 444L53.3 444.8C106.7 445.7 213.3 447.3 320 456.3C426.7 465.3 533.3 481.7 640 489.8C746.7 498 853.3 498 906.7 498L960 498L960 442L906.7 439.3C853.3 436.7 746.7 431.3 640 416C533.3 400.7 426.7 375.3 320 362.7C213.3 350 106.7 350 53.3 350L0 350Z" fill="#09090e"></path><path d="M0 541L53.3 541C106.7 541 213.3 541 320 541C426.7 541 533.3 541 640 541C746.7 541 853.3 541 906.7 541L960 541L960 496L906.7 496C853.3 496 746.7 496 640 487.8C533.3 479.7 426.7 463.3 320 454.3C213.3 445.3 106.7 443.7 53.3 442.8L0 442Z" fill="#070709"></path></svg>