<svg id="visual" viewBox="0 0 960 540" width="960" height="540" xmlns="http://www.w3.org/2000/svg" xmlns:xlink="http://www.w3.org/1999/xlink" version="1.1"><path d="M0 179L53.3 164.7C106.7 150.3 213.3 121.7 320 117.2C426.7 112.7 533.3 132.3 640 150.3C746.7 168.3 853.3 184.7 906.7 192.8L960 201L960 0L906.7 0C853.3 0 746.7 0 640 0C533.3 0 426.7 0 320 0C213.3 0 106.7 0 53.3 0L0 0Z" fill="#e4e1f1"></path><path d="M0 271L53.3 258.3C106.7 245.7 213.3 220.3 320 214C426.7 207.7 533.3 220.3 640 235.7C746.7 251 853.3 269 906.7 278L960 287L960 199L906.7 190.8C853.3 182.7 746.7 166.3 640 148.3C533.3 130.3 426.7 110.7 320 115.2C213.3 119.7 106.7 148.3 53.3 162.7L0 177Z" fill="#dedaee"></path><path d="M0 368L53.3 351.8C106.7 335.7 213.3 303.3 320 289C426.7 274.7 533.3 278.3 640 291.8C746.7 305.3 853.3 328.7 906.7 340.3L960 352L960 285L906.7 276C853.3 267 746.7 249 640 233.7C533.3 218.3 426.7 205.7 320 212C213.3 218.3 106.7 243.7 53.3 256.3L0 269Z" fill="#d8d3ea"></path><path d="M0 482L53.3 484.7C106.7 487.3 213.3 492.7 320 489.8C426.7 487 533.3 476 640 471.5C746.7 467 853.3 469 906.7 470L960 471L960 350L906.7 338.3C853.3 326.7 746.7 303.3 640 289.8C533.3 276.3 426.7 272.7 320 287C213.3 301.3 106.7 333.7 53.3 349.8L0 366Z" fill="#cfc9e5"></path><path d="M0 541L53.3 541C106.7 541 213.3 541 320 541C426.7 541 533.3 541 640 541C746.7 541 853.3 541 906.7 541L960 541L960 469L906.7 468C853.3 467 746.7 465 640 469.5C533.3 474 426.7 485 320 487.8C213.3 490.7 106.7 485.3 53.3 482.7L0 480Z" fill="#c6bfe0"></path></svg>