<svg id="visual" viewBox="0 0 1920 1080" width="1920" height="1080" xmlns="http://www.w3.org/2000/svg" xmlns:xlink="http://www.w3.org/1999/xlink" version="1.1"><rect x="0" y="0" width="1920" height="1080" fill="#080808"></rect><path d="M0 861L45.7 850.8C91.3 840.7 182.7 820.3 274.2 809.2C365.7 798 457.3 796 548.8 782.5C640.3 769 731.7 744 823 730.8C914.3 717.7 1005.7 716.3 1097 739.3C1188.3 762.3 1279.7 809.7 1371.2 820.7C1462.7 831.7 1554.3 806.3 1645.8 790.2C1737.3 774 1828.7 767 1874.3 763.5L1920 760L1920 0L1874.3 0C1828.7 0 1737.3 0 1645.8 0C1554.3 0 1462.7 0 1371.2 0C1279.7 0 1188.3 0 1097 0C1005.7 0 914.3 0 823 0C731.7 0 640.3 0 548.8 0C457.3 0 365.7 0 274.2 0C182.7 0 91.3 0 45.7 0L0 0Z" fill="#0c0c0c"></path><path d="M0 564L45.7 575.8C91.3 587.7 182.7 611.3 274.2 610.8C365.7 610.3 457.3 585.7 548.8 582.8C640.3 580 731.7 599 823 607.3C914.3 615.7 1005.7 613.3 1097 609.5C1188.3 605.7 1279.7 600.3 1371.2 605.2C1462.7 610 1554.3 625 1645.8 623.3C1737.3 621.7 1828.7 603.3 1874.3 594.2L1920 585L1920 0L1874.3 0C1828.7 0 1737.3 0 1645.8 0C1554.3 0 1462.7 0 1371.2 0C1279.7 0 1188.3 0 1097 0C1005.7 0 914.3 0 823 0C731.7 0 640.3 0 548.8 0C457.3 0 365.7 0 274.2 0C182.7 0 91.3 0 45.7 0L0 0Z" fill="#0b0b0b"></path><path d="M0 521L45.7 509.5C91.3 498 182.7 475 274.2 460C365.7 445 457.3 438 548.8 436.5C640.3 435 731.7 439 823 442.3C914.3 445.7 1005.7 448.3 1097 462.5C1188.3 476.7 1279.7 502.3 1371.2 517.8C1462.7 533.3 1554.3 538.7 1645.8 529.3C1737.3 520 1828.7 496 1874.3 484L1920 472L1920 0L1874.3 0C1828.7 0 1737.3 0 1645.8 0C1554.3 0 1462.7 0 1371.2 0C1279.7 0 1188.3 0 1097 0C1005.7 0 914.3 0 823 0C731.7 0 640.3 0 548.8 0C457.3 0 365.7 0 274.2 0C182.7 0 91.3 0 45.7 0L0 0Z" fill="#090909"></path><path d="M0 308L45.7 311C91.3 314 182.7 320 274.2 323.3C365.7 326.7 457.3 327.3 548.8 335.7C640.3 344 731.7 360 823 360.5C914.3 361 1005.7 346 1097 332.7C1188.3 319.3 1279.7 307.7 1371.2 311.5C1462.7 315.3 1554.3 334.7 1645.8 332.8C1737.3 331 1828.7 308 1874.3 296.5L1920 285L1920 0L1874.3 0C1828.7 0 1737.3 0 1645.8 0C1554.3 0 1462.7 0 1371.2 0C1279.7 0 1188.3 0 1097 0C1005.7 0 914.3 0 823 0C731.7 0 640.3 0 548.8 0C457.3 0 365.7 0 274.2 0C182.7 0 91.3 0 45.7 0L0 0Z" fill="#070707"></path><path d="M0 233L45.7 230.8C91.3 228.7 182.7 224.3 274.2 209.3C365.7 194.3 457.3 168.7 548.8 154.8C640.3 141 731.7 139 823 151.2C914.3 163.3 1005.7 189.7 1097 195.7C1188.3 201.7 1279.7 187.3 1371.2 190C1462.7 192.7 1554.3 212.3 1645.8 218.7C1737.3 225 1828.7 218 1874.3 214.5L1920 211L1920 0L1874.3 0C1828.7 0 1737.3 0 1645.8 0C1554.3 0 1462.7 0 1371.2 0C1279.7 0 1188.3 0 1097 0C1005.7 0 914.3 0 823 0C731.7 0 640.3 0 548.8 0C457.3 0 365.7 0 274.2 0C182.7 0 91.3 0 45.7 0L0 0Z" fill="#050505"></path></svg>